<?xml version="1.0" encoding="UTF-8" standalone="no"?>
<!-- Created with Inkscape (http://www.inkscape.org/) -->

<svg
   id="svg5"
   version="1.1"
   viewBox="0 0 507.99999 7293.5324"
   height="7293.5322mm"
   width="508mm"
   xmlns="http://www.w3.org/2000/svg"
   xmlns:svg="http://www.w3.org/2000/svg">
  <defs
     id="defs2">
    <circle
       id="a"
       class="st1"
       cx="175"
       cy="175"
       r="150" />
    <clipPath
       id="clipPath7381">
      <rect
         style="fill:none;fill-opacity:1;stroke:#ffffff;stroke-width:2;stroke-linejoin:round;stroke-miterlimit:4;stroke-dasharray:none;stroke-opacity:1"
         width="415.98276"
         height="415.98276"
         x="160.92204"
         y="-253.65526"
         id="rect10357" />
    </clipPath>
  </defs>
  <g
     id="layer1"
     transform="translate(-88.004593,-172.64541)">
    <path
       id="rect6226"
       style="fill:#000000;fill-opacity:1;stroke:none;stroke-width:2;stroke-linejoin:round;stroke-miterlimit:4;stroke-dasharray:none;stroke-opacity:1"
       d="m 1858.0059,266.78516 c -28.9327,-0.20621 -46.9278,26.37304 -46.9278,26.37304 0,0 -31.9924,47.25488 -79.2461,15.26368 -47.2536,-31.99125 -79.2441,15.26171 -79.2441,15.26171 0,0 -31.9925,47.25293 -79.2461,15.26172 -47.2537,-31.9912 -79.2441,15.26367 -79.2441,15.26367 0,0 -31.9906,47.25293 -79.2442,15.26172 -47.2536,-31.99124 -79.2461,15.26368 -79.2461,15.26368 0,0 -31.9905,47.25296 -79.2441,15.26171 -47.2537,-31.99116 -79.2442,15.26172 -79.2442,15.26172 0,0 -31.9924,47.25492 -79.2461,15.26367 -47.2536,-31.9912 -79.2441,15.26172 -79.2441,15.26172 0,0 -31.99243,47.25297 -79.24609,15.26172 -47.25365,-31.9912 -79.24414,15.26367 -79.24414,15.26367 0,0 -31.99052,47.25293 -79.24414,15.26172 -47.25366,-31.9912 -79.24609,15.26172 -79.24609,15.26172 0,0 -31.99049,47.25488 -79.24414,15.26367 -47.25366,-31.9912 -79.24414,15.26172 -79.24414,15.26172 0,0 -31.99244,47.25488 -79.2461,15.26367 -47.25362,-31.9912 -79.24414,15.26172 -79.24414,15.26172 0,0 -31.99247,47.25293 -79.24609,15.26172 -47.2537,-31.99121 -79.24414,15.26367 -79.24414,15.26367 0,0 -31.99049,47.25293 -79.24414,15.26172 -47.253622,-31.9912 -79.246097,15.26172 -79.246097,15.26172 0,0 -26.875241,39.45376 -67.689453,21.55274 L 0,27832.891 H 1920 V 288.78125 c -8.9852,-0.55674 -18.9094,-3.59447 -29.6777,-10.88477 -11.8135,-7.9978 -22.6722,-11.04259 -32.3164,-11.11132 z"
       transform="matrix(0.26458333,0,0,0.26458333,88.004593,102.05882)" />
    <g
       id="g11526"
       style="stroke:#ffffff;stroke-opacity:1"
       transform="translate(365.49941,32.309341)" />
    <g
       id="g14568"
       style="stroke:#ffffff;stroke-opacity:1"
       transform="translate(2.7709008,37.778572)" />
  </g>
  <style
     id="style4492">.st1{opacity:.15}.st3{fill:#f1f1f2}.st4{fill:#231f20}.st5{fill:#808184}.st8{fill:#59595c}.st9{fill:#a7a8ab}.st10{fill:#6d6e70}.st11{fill:#221f1f}.st12{fill:#404041}.st13{fill:#58595b}.st14{fill:#bbbdbf}.st15{fill:#fff}.st16{fill:#a6a8ab}</style>
</svg>
